# xmcd
#
# Track frame offsets:
#	150
#	20347
#	45540
#	64442
#	84722
#	109125
#	129002
#	154067
#	168295
#
# Disc length: 2631 seconds
#
# Revision: 4
# Processed by: cddbd v1.5PL3 Copyright (c) Steve Scherf et al.
# Submitted via: CDex 1.50Beta5
#
DISCID=6b0a4509
DTITLE=中村由利子 - アトリエの休日
DYEAR=1994
DGENRE=New Age
TTITLE0=アナザー・スプリング
TTITLE1=あの日のように
TTITLE2=エトランゼの休日
TTITLE3=失われた時を求めて
TTITLE4=風紀行
TTITLE5=オン・ザ・グリーンアース
TTITLE6=夢の帆影
TTITLE7=ロマンス
TTITLE8=賛歌
EXTD=
EXTT0=
EXTT1=
EXTT2=
EXTT3=
EXTT4=
EXTT5=
EXTT6=
EXTT7=
EXTT8=
PLAYORDER=
